<svg xmlns="http://www.w3.org/2000/svg" width="200" height="200" viewBox="0 0 200 200">
  <rect width="200" height="200" fill="transparent"/>
  <path d="M0 20 Q50 15 100 20 Q150 25 200 20" fill="none" stroke="#d4a373" stroke-width="0.5" opacity="0.4"/>
  <path d="M0 50 Q50 45 100 50 Q150 55 200 50" fill="none" stroke="#d4a373" stroke-width="0.5" opacity="0.3"/>
  <path d="M0 80 Q50 75 100 80 Q150 85 200 80" fill="none" stroke="#d4a373" stroke-width="0.5" opacity="0.4"/>
  <path d="M0 110 Q50 105 100 110 Q150 115 200 110" fill="none" stroke="#d4a373" stroke-width="0.5" opacity="0.3"/>
  <path d="M0 140 Q50 135 100 140 Q150 145 200 140" fill="none" stroke="#d4a373" stroke-width="0.5" opacity="0.4"/>
  <path d="M0 170 Q50 165 100 170 Q150 175 200 170" fill="none" stroke="#d4a373" stroke-width="0.5" opacity="0.3"/>
  <path d="M80 0 Q75 50 80 100 Q85 150 80 200" fill="none" stroke="#d4a373" stroke-width="0.3" opacity="0.2"/>
  <path d="M150 0 Q145 50 150 100 Q155 150 150 200" fill="none" stroke="#d4a373" stroke-width="0.3" opacity="0.2"/>
</svg>
